<?plantuml 1.2026.0?><svg xmlns="http://www.w3.org/2000/svg" xmlns:xlink="http://www.w3.org/1999/xlink" contentStyleType="text/css" data-diagram-type="DESCRIPTION" height="695px" preserveAspectRatio="none" style="width:909px;height:695px;background:#FFFFFF;" version="1.1" viewBox="0 0 909 695" width="909px" zoomAndPan="magnify"><title>Las piezas del backend
Dos procesos que se disparan a mano, y que hay del otro lado</title><defs/><g><g class="title" data-source-line="2"><text fill="#000000" font-family="Verdana" font-size="22" font-weight="bold" lengthAdjust="spacing" textLength="244.5459" x="327.7271" y="35.6357">Las piezas del backend</text><text fill="#000000" font-family="Verdana" font-size="22" font-weight="bold" lengthAdjust="spacing" textLength="654.0596" x="122.9702" y="60.9336">Dos procesos que se disparan a mano, y que hay del otro lado</text></g><!--cluster controller--><g class="cluster" data-qualified-name="controller" data-source-line="11" id="ent0003"><rect fill="#FFFFFF" height="87.1" rx="2.5" ry="2.5" style="stroke:#000000;stroke-width:1;" width="355" x="83" y="213.6957"/><text fill="#000000" font-family="Verdana" font-size="14" font-weight="bold" lengthAdjust="spacing" textLength="64.5654" x="228.2173" y="228.8275">controller</text></g><!--cluster service--><g class="cluster" data-qualified-name="service" data-source-line="16" id="ent0006"><rect fill="#FFFFFF" height="198.19" rx="2.5" ry="2.5" style="stroke:#000000;stroke-width:1;" width="481" x="12" y="348.7957"/><text fill="#000000" font-family="Verdana" font-size="14" font-weight="bold" lengthAdjust="spacing" textLength="48.2686" x="228.3657" y="363.9275">service</text></g><!--cluster util--><g class="cluster" data-qualified-name="util" data-source-line="23" id="ent0011"><rect fill="#FFFFFF" height="87.1" rx="2.5" ry="2.5" style="stroke:#000000;stroke-width:1;" width="184" x="517" y="459.8857"/><text fill="#000000" font-family="Verdana" font-size="14" font-weight="bold" lengthAdjust="spacing" textLength="20.9932" x="598.5034" y="475.0175">util</text></g><!--cluster repository--><g class="cluster" data-qualified-name="repository" data-source-line="27" id="ent0013"><rect fill="#FFFFFF" height="87.1" rx="2.5" ry="2.5" style="stroke:#000000;stroke-width:1;" width="178" x="725" y="459.8857"/><text fill="#000000" font-family="Verdana" font-size="14" font-weight="bold" lengthAdjust="spacing" textLength="68.4619" x="779.769" y="475.0175">repository</text></g><!--entity ctrl--><g class="entity" data-qualified-name="controller.ctrl" data-source-line="12" id="ent0004"><rect fill="#FFFFFF" height="36.0986" rx="2.5" ry="2.5" style="stroke:#000000;stroke-width:1;" width="142.1445" x="98.93" y="248.6957"/><text fill="#000000" font-family="Verdana" font-size="14" lengthAdjust="spacing" textLength="122.1445" x="108.93" y="271.8275">DiscoveryController</text></g><!--entity probeCtrl--><g class="entity" data-qualified-name="controller.probeCtrl" data-source-line="13" id="ent0005"><rect fill="#FFFFFF" height="36.0986" rx="2.5" ry="2.5" style="stroke:#000000;stroke-width:1;" width="155.4063" x="266.3" y="248.6957"/><text fill="#000000" font-family="Verdana" font-size="14" lengthAdjust="spacing" textLength="135.4063" x="276.3" y="271.8275">BoardProbeController</text></g><!--entity svc--><g class="entity" data-qualified-name="service.svc" data-source-line="17" id="ent0007"><rect fill="#FFFFFF" height="36.0986" rx="2.5" ry="2.5" style="stroke:#000000;stroke-width:1;" width="205.1924" x="28.4" y="383.7957"/><text fill="#000000" font-family="Verdana" font-size="14" lengthAdjust="spacing" textLength="185.1924" x="38.4" y="406.9275">GreenhouseDiscoveryService</text></g><!--entity client--><g class="entity" data-qualified-name="service.client" data-source-line="18" id="ent0008"><rect fill="#FFFFFF" height="36.0986" rx="2.5" ry="2.5" style="stroke:#000000;stroke-width:1;" width="182.6133" x="39.69" y="494.8857"/><text fill="#000000" font-family="Verdana" font-size="14" lengthAdjust="spacing" textLength="162.6133" x="49.69" y="518.0175">CommonCrawlIndexClient</text></g><!--entity probeSvc--><g class="entity" data-qualified-name="service.probeSvc" data-source-line="19" id="ent0009"><rect fill="#FFFFFF" height="36.0986" rx="2.5" ry="2.5" style="stroke:#000000;stroke-width:1;" width="218.4541" x="258.77" y="383.7957"/><text fill="#000000" font-family="Verdana" font-size="14" lengthAdjust="spacing" textLength="198.4541" x="268.77" y="406.9275">GreenhouseBoardProbeService</text></g><!--entity boardClient--><g class="entity" data-qualified-name="service.boardClient" data-source-line="20" id="ent0010"><rect fill="#FFFFFF" height="36.0986" rx="2.5" ry="2.5" style="stroke:#000000;stroke-width:1;" width="170.2061" x="282.9" y="494.8857"/><text fill="#000000" font-family="Verdana" font-size="14" lengthAdjust="spacing" textLength="150.2061" x="292.9" y="518.0175">GreenhouseBoardClient</text></g><!--entity url--><g class="entity" data-qualified-name="util.url" data-source-line="24" id="ent0012"><rect fill="#FFFFFF" height="36.0986" rx="2.5" ry="2.5" style="stroke:#000000;stroke-width:1;" width="152.2959" x="532.85" y="494.8857"/><text fill="#000000" font-family="Verdana" font-size="14" lengthAdjust="spacing" textLength="132.2959" x="542.85" y="518.0175">GreenhouseBoardUrl</text></g><!--entity repo--><g class="entity" data-qualified-name="repository.repo" data-source-line="28" id="ent0014"><rect fill="#FFFFFF" height="36.0986" rx="2.5" ry="2.5" style="stroke:#000000;stroke-width:1;" width="146.834" x="740.58" y="494.8857"/><text fill="#000000" font-family="Verdana" font-size="14" lengthAdjust="spacing" textLength="126.834" x="750.58" y="518.0175">CompanyRepository</text></g><!--entity you--><g class="entity" data-qualified-name="you" data-source-line="9" id="ent0002"><ellipse cx="257" cy="90.5957" fill="#FFFFFF" rx="8" ry="8" style="stroke:#000000;stroke-width:1;"/><path d="M257,98.5957 L257,125.5957 M244,106.5957 L270,106.5957 M257,125.5957 L244,140.5957 M257,125.5957 L270,140.5957" fill="none" style="stroke:#000000;stroke-width:1;"/><text fill="#000000" font-family="Verdana" font-size="14" lengthAdjust="spacing" textLength="24.124" x="244.938" y="155.7275">Vos</text></g><!--entity cc--><g class="entity" data-qualified-name="cc" data-source-line="31" id="ent0015"><path d="M50.9262,626.4418 C53.3284,620.6367 58.9299,621.2529 62.0669,625.6385 C65.4555,619.971 71.2681,621.1814 73.8676,626.4871 C77.5195,619.1945 81.5717,619.6144 86.6842,625.012 C90.2541,619.8201 94.2034,621.2889 96.8676,625.9483 C100.5424,619.4306 104.6396,620.8211 108.7436,625.4928 C111.4171,620.3113 116.3653,619.7636 120.2717,623.9806 C124.6974,618.9189 128.3435,619.248 132.1162,624.7153 C135.2069,619.1689 139.8616,618.323 143.6978,623.9421 C148.4275,619.0057 152.5425,618.8359 155.3138,625.8464 C158.2223,620.8353 162.1364,620.0158 166.1578,624.587 C171.4761,619.2464 175.4546,619.8874 179.2376,626.2962 C183.0564,620.8155 187.0536,621.1221 190.8261,626.3462 C194.4727,621.4914 197.4831,622.0203 200.8358,626.6562 C204.8431,620.7153 208.5609,620.7509 213.1669,625.9962 C218.2623,629.1275 218.5954,633.7482 214.0697,637.6263 C220.7256,640.9963 221.2557,645.2817 215.431,650.0222 C221.1101,654.0439 220.6156,658.6879 214.4054,661.662 C219.4203,665.4154 218.2533,670.0153 212.6774,671.998 C209.3788,676.7507 204.6952,676.462 201.7064,671.643 C198.7311,676.8821 194.1636,678.0666 189.8802,673.1691 C187.1457,678.6406 182.0424,679.3422 178.6769,673.8116 C174.2185,679.896 169.3543,679.6982 165.7031,672.9928 C162.2223,677.5429 158.7008,678.5124 154.8583,673.3986 C152.5667,678.2858 148.6953,679.7929 144.481,675.5946 C139.9101,681.0737 136.292,680.8713 133.1885,674.2277 C129.8906,681.7656 123.9812,680.4831 119.7273,675.2341 C115.4282,680.7369 111.7588,679.5073 108.7768,673.9322 C104.8381,679.4177 99.9195,680.411 96.4058,673.5079 C92.5973,678.4165 88.5336,677.8964 85.0428,673.1347 C81.4313,678.8812 77.7746,679.2645 73.5656,673.7433 C69.2331,679.3168 65.1064,679.0199 62.1361,672.4601 C58.7804,677.9142 53.6813,678.5575 50.3067,672.4795 C43.5632,671.1818 42.9974,666.365 47.0534,661.7828 C40.4773,659.698 38.5121,654.4577 44.0475,649.4266 C40.4013,644.3459 42.1459,640.1245 48.1364,638.7263 C43.5756,633.2157 43.8758,629.3154 50.9262,626.4418" fill="#FFFFFF" style="stroke:#000000;stroke-width:1;"/><text fill="#000000" font-family="Verdana" font-size="14" lengthAdjust="spacing" textLength="147.834" x="57.08" y="645.1175">index.commoncrawl.org</text><text fill="#000000" font-family="Verdana" font-size="14" lengthAdjust="spacing" textLength="109.7236" x="57.08" y="661.2162">el indice de URLs</text></g><!--entity gh--><g class="entity" data-qualified-name="gh" data-source-line="32" id="ent0016"><path d="M282.1897,627.1762 C285.1552,619.6453 291.5055,619.2816 295.8328,625.8594 C298.5774,619.0353 304.4345,619.6432 307.9505,625.0981 C310.9734,619.9163 315.9136,619.4019 319.5104,624.4496 C323.5029,618.485 327.5074,618.9321 331.4502,624.501 C335.3724,617.9953 341.4325,618.7898 345.1908,624.6826 C348.1997,619.6425 354.1981,618.189 357.2884,624.5966 C361.5551,618.9486 365.01,619.8102 368.8723,625.0277 C372.8823,620.1204 377.5656,619.238 381.1923,625.4523 C384.9238,619.3326 390.1191,619.0868 393.9483,625.3517 C397.6597,619.43 402.012,618.8284 406.7098,624.241 C410.9274,618.6589 414.8064,617.9112 418.758,624.5042 C422.3716,618.3978 427.4534,619.9031 430.2914,625.2829 C435.0411,620.4061 439.1256,619.9393 442.7879,626.4736 C446.58,619.2286 451.9286,620.1196 455.9371,626.261 C462.7795,627.7496 463.2133,633.9252 458.8474,638.1561 C465.4544,640.788 466.0726,645.1551 460.9569,649.8938 C465.9257,654.4928 464.6924,659.321 458.4333,661.4732 C461.8188,666.3995 461.4418,670.3479 455.0588,672.2017 C451.5047,677.3571 447.5276,678.5435 443.5802,672.6088 C441.7883,678.8214 436.0124,679.2544 431.9262,675.2176 C428.4985,682.4771 423.4145,681.8618 418.4406,676.9276 C414.3825,681.951 410.6592,682.5422 406.3784,677.1864 C403.5916,683.8741 399.5422,684.3911 394.4951,679.5077 C390.3515,685.7589 384.8975,684.8448 381.163,679.0548 C378.452,685.1078 373.8285,685.172 369.6618,680.6358 C364.8989,685.8662 360.4013,684.5715 357.3746,678.7122 C352.6739,685.5138 348.2587,685.075 344.453,677.8856 C340.5277,684.2641 335.5757,683.5294 332.3253,677.2395 C328.7073,682.9286 323.0906,682.5809 319.9308,676.7467 C315.0351,680.939 310.9159,681.0607 308.4236,674.2363 C302.8147,680.2105 297.9856,680.7824 294.0446,672.5483 C290.3982,677.182 286.8575,678.0092 283.1593,672.6044 C270.64,666.4718 270.6714,658.172 280.8313,649.7311 C271.3652,642.4496 269.6631,633.1333 282.1897,627.1762" fill="#FFFFFF" style="stroke:#000000;stroke-width:1;"/><text fill="#000000" font-family="Verdana" font-size="14" lengthAdjust="spacing" textLength="158.7783" x="288.61" y="645.1175">boards-api.greenhouse.io</text><text fill="#000000" font-family="Verdana" font-size="14" lengthAdjust="spacing" textLength="137.7578" x="288.61" y="661.2162">la API de Greenhouse</text></g><!--entity db--><g class="entity" data-qualified-name="db" data-source-line="33" id="ent0017"><path d="M758.47,627.4857 C758.47,617.4857 813.9973,617.4857 813.9973,617.4857 C813.9973,617.4857 869.5247,617.4857 869.5247,627.4857 L869.5247,668.683 C869.5247,678.683 813.9973,678.683 813.9973,678.683 C813.9973,678.683 758.47,678.683 758.47,668.683 L758.47,627.4857" fill="#FFFFFF" style="stroke:#000000;stroke-width:1;"/><path d="M758.47,627.4857 C758.47,637.4857 813.9973,637.4857 813.9973,637.4857 C813.9973,637.4857 869.5247,637.4857 869.5247,627.4857" fill="none" style="stroke:#000000;stroke-width:1;"/><text fill="#000000" font-family="Verdana" font-size="14" lengthAdjust="spacing" textLength="76.2617" x="768.47" y="654.6175">PostgreSQL</text><text fill="#000000" font-family="Verdana" font-size="14" lengthAdjust="spacing" textLength="91.0547" x="768.47" y="670.7162">tabla company</text></g><!--link you to ctrl--><g class="link" data-entity-1="ent0002" data-entity-2="ent0004" data-link-type="dependency" data-source-line="35" id="lnk18"><path d="M242.59,127.7857 C224.34,137.0257 193.53,155.6357 179,181.6957 C167.42,202.4557 166.4947,224.6087 167.6747,242.4787" fill="none" id="you-to-ctrl" style="stroke:#000000;stroke-width:1;"/><polygon fill="#000000" points="168.07,248.4657,171.4683,239.2217,167.7406,243.4766,163.4857,239.7488,168.07,248.4657" style="stroke:#000000;stroke-width:1;"/><text fill="#000000" font-family="Verdana" font-size="13" lengthAdjust="spacing" textLength="128.6099" x="180" y="194.8896">1. descubrir empresas</text></g><!--link you to probeCtrl--><g class="link" data-entity-1="ent0002" data-entity-2="ent0005" data-link-type="dependency" data-source-line="36" id="lnk19"><path d="M271.42,134.4357 C283.3,145.9957 299.93,163.6957 311,181.6957 C324.22,203.1957 332.118,225.1542 337.458,242.7542" fill="none" id="you-to-probeCtrl" style="stroke:#000000;stroke-width:1;"/><polygon fill="#000000" points="339.2,248.4957,340.4146,238.722,337.7483,243.7111,332.7593,241.0447,339.2,248.4957" style="stroke:#000000;stroke-width:1;"/><text fill="#000000" font-family="Verdana" font-size="13" lengthAdjust="spacing" textLength="128.6353" x="320.29" y="194.8896">2. sondear sus boards</text></g><!--link ctrl to svc--><g class="link" data-entity-1="ent0004" data-entity-2="ent0007" data-link-type="dependency" data-source-line="38" id="lnk20"><path d="M164.9,285.1457 C157.43,310.6457 145.2562,352.1675 137.7862,377.6775" fill="none" id="ctrl-to-svc" style="stroke:#000000;stroke-width:1;"/><polygon fill="#000000" points="136.1,383.4357,142.468,375.9225,137.5051,378.6372,134.7904,373.6743,136.1,383.4357" style="stroke:#000000;stroke-width:1;"/><text fill="#000000" font-family="Verdana" font-size="13" lengthAdjust="spacing" textLength="91.0317" x="156.14" y="329.9896">discover(indice)</text></g><!--link probeCtrl to probeSvc--><g class="link" data-entity-1="ent0005" data-entity-2="ent0009" data-link-type="dependency" data-source-line="39" id="lnk21"><path d="M347.14,285.1457 C351.74,310.6457 359.1952,352.0209 363.7952,377.5309" fill="none" id="probeCtrl-to-probeSvc" style="stroke:#000000;stroke-width:1;"/><polygon fill="#000000" points="364.86,383.4357,367.1994,373.8687,363.9727,378.5151,359.3264,375.2884,364.86,383.4357" style="stroke:#000000;stroke-width:1;"/><text fill="#000000" font-family="Verdana" font-size="13" lengthAdjust="spacing" textLength="56.3545" x="356.28" y="329.9896">probeAll()</text></g><!--link svc to client--><g class="link" data-entity-1="ent0007" data-entity-2="ent0008" data-link-type="dependency" data-source-line="41" id="lnk22"><path d="M131,420.3657 C131,440.7257 131,468.1157 131,488.4557" fill="none" id="svc-to-client" style="stroke:#000000;stroke-width:1;"/><polygon fill="#000000" points="131,494.4557,135,485.4557,131,489.4557,127,485.4557,131,494.4557" style="stroke:#000000;stroke-width:1;"/></g><!--link svc to url--><g class="link" data-entity-1="ent0007" data-entity-2="ent0012" data-link-type="dependency" data-source-line="42" id="lnk23"><path d="M233.81,418.1757 C237.93,418.7557 242,419.3357 246,419.8857 C354.76,435.0557 386.1,419.4057 491,451.8857 C523.72,462.0257 553.1661,477.6338 576.3861,491.4738" fill="none" id="svc-to-url" style="stroke:#000000;stroke-width:1;"/><polygon fill="#000000" points="581.54,494.5457,575.857,486.5018,577.245,491.9857,571.7611,493.3737,581.54,494.5457" style="stroke:#000000;stroke-width:1;"/></g><!--link svc to repo--><g class="link" data-entity-1="ent0007" data-entity-2="ent0014" data-link-type="dependency" data-source-line="43" id="lnk24"><path d="M234.08,418.5157 C238.1,419.0057 242.09,419.4657 246,419.8857 C446.64,441.8157 504.8,396.9157 699,451.8857 C731.72,461.1557 760.777,477.1818 783.277,491.3918" fill="none" id="svc-to-repo" style="stroke:#000000;stroke-width:1;"/><polygon fill="#000000" points="788.35,494.5957,782.8764,486.4079,784.1225,491.9258,778.6046,493.1719,788.35,494.5957" style="stroke:#000000;stroke-width:1;"/></g><!--link probeSvc to boardClient--><g class="link" data-entity-1="ent0009" data-entity-2="ent0010" data-link-type="dependency" data-source-line="44" id="lnk25"><path d="M368,420.3657 C368,440.7257 368,468.1157 368,488.4557" fill="none" id="probeSvc-to-boardClient" style="stroke:#000000;stroke-width:1;"/><polygon fill="#000000" points="368,494.4557,372,485.4557,368,489.4557,364,485.4557,368,494.4557" style="stroke:#000000;stroke-width:1;"/></g><!--link probeSvc to repo--><g class="link" data-entity-1="ent0009" data-entity-2="ent0014" data-link-type="dependency" data-source-line="45" id="lnk26"><path d="M477.6,404.2857 C544.14,408.6957 629.38,420.7957 699,451.8857 C728.2,464.9357 755.1343,479.0814 778.0143,491.6814" fill="none" id="probeSvc-to-repo" style="stroke:#000000;stroke-width:1;"/><polygon fill="#000000" points="783.27,494.5757,777.3159,486.7304,778.8902,492.1638,773.4568,493.738,783.27,494.5757" style="stroke:#000000;stroke-width:1;"/></g><!--link client to cc--><g class="link" data-entity-1="ent0008" data-entity-2="ent0015" data-link-type="dependency" data-source-line="47" id="lnk27"><path d="M131,531.3457 C131,552.9857 131,584.2857 131,610.6857" fill="none" id="client-to-cc" style="stroke:#000000;stroke-width:1;"/><polygon fill="#000000" points="131,616.6857,135,607.6857,131,611.6857,127,607.6857,131,616.6857" style="stroke:#000000;stroke-width:1;"/><text fill="#000000" font-family="Verdana" font-size="13" lengthAdjust="spacing" textLength="46.2236" x="160.9326" y="576.1796">HTTPS,</text><text fill="#000000" font-family="Verdana" font-size="13" lengthAdjust="spacing" textLength="104.0889" x="132" y="591.1283">pagina por pagina</text></g><!--link boardClient to gh--><g class="link" data-entity-1="ent0010" data-entity-2="ent0016" data-link-type="dependency" data-source-line="48" id="lnk28"><path d="M368,531.3457 C368,552.9857 368,584.2857 368,610.6857" fill="none" id="boardClient-to-gh" style="stroke:#000000;stroke-width:1;"/><polygon fill="#000000" points="368,616.6857,372,607.6857,368,611.6857,364,607.6857,368,616.6857" style="stroke:#000000;stroke-width:1;"/><text fill="#000000" font-family="Verdana" font-size="13" lengthAdjust="spacing" textLength="46.2236" x="406.5813" y="576.1796">HTTPS,</text><text fill="#000000" font-family="Verdana" font-size="13" lengthAdjust="spacing" textLength="121.3862" x="369" y="591.1283">un GET por empresa</text></g><!--link repo to db--><g class="link" data-entity-1="ent0014" data-entity-2="ent0017" data-link-type="dependency" data-source-line="49" id="lnk29"><path d="M814,531.3457 C814,553.1257 814,584.7757 814,611.2057" fill="none" id="repo-to-db" style="stroke:#000000;stroke-width:1;"/><polygon fill="#000000" points="814,617.2057,818,608.2057,814,612.2057,810,608.2057,814,617.2057" style="stroke:#000000;stroke-width:1;"/></g><?plantuml-src PLCzRzim4DtvAwwQ4Y0MqA1PEXH8dI8DuC6DaYvn1ugwIeGfdafIJjMY_xr7ofPbPn9rzzxZkm--2mss29sHsegWWq5OIG-TnZ_ygT10ATKMRRMnTyHnHmez7txr21wXqhwJJbgGq4fBLp2aJ2E7nANW28oiI0Y_rJP2Mr3KTcJHXY8CV9r35QIj3SuWlc7EgxOr_9J6ppEMAlJOmVNDBCW6jZ7uuKO8gG8voBwJpu0h6AWNOhe2CaMMFHc3BeE_0k3bJdj5EtJ3SihyY4GLd8dvpoHTjNPKuXcWIx68-dToWqUtqmhtylSEqJRKUvmkAaP04l4x5L5BQbkoIoTVpOEjyFVIQExFw2CTJwMEdkPQoL0n2fvXPthbyV_CU1-qUUCwqP-TITp-JR4EE_AQEpxicLn99-tmECKJCS8YKndgAyXqh35NgMWLYyx9rHlB2yCPBeTt1vuVL-C4bJhGadM_a9tEwybWhcbZZOJRzKEa7PqdSjs8IWPPIjxLR4q-CB7ujjfOZZ59ZMuJj2g5u6s1nU9J6ZvyXFSvIthLbquxmBPpwAMVGDC2CF8w1qzSbNJW-tsJFTSRin7BSsPKjL-1Yx7CIt6Kc0IBX4p7MsCkBldbS2IP6eTs-8t3E9nJVoTwZCp7V998K35gZRBnlgzFJ-lYQiFlgTPMGiTFQ3oAcL22ryqCtbku__AKuFlsYAYVWDpF_m00?></g></svg>